<svg xmlns="http://www.w3.org/2000/svg" xmlns:xlink="http://www.w3.org/1999/xlink" fill="none" version="1.1" width="900" height="900" viewBox="0 0 900 900"><defs><linearGradient x1="0.08978328108787537" y1="0" x2="0.9597523212432861" y2="0.5" id="master_svg0_989_36828"><stop offset="0%" stop-color="#74FFE8" stop-opacity="1"/><stop offset="100%" stop-color="#1B1FFF" stop-opacity="1"/></linearGradient></defs><g><g><g></g><g><g><g><path d="M127,337L173,337L261,249L221,249L127,337Z" fill="#6FF2FF" fill-opacity="1"/></g><g transform="matrix(-1,0,0,1,1546,0)"><path d="M773,337L819,337L907,249L867,249L773,337Z" fill="#1D25FF" fill-opacity="1"/></g><g><path d="M493.306,526.441L589.111,342.909L605.095,564L709,556.508L679.466,148L573.374,148L450,384.345L326.626,148L220.5337,148L191,556.508L294.904,564L310.889,342.909L406.69399999999996,526.441L493.306,526.441Z" fill-rule="evenodd" fill="#F7FF63" fill-opacity="1"/></g><g><path d="M127,337L127,453C127,488.346,155.6538,517,191,517L359,517C394.346,517,423,488.346,423,453L423,369L477,369L477,453C477,488.346,505.654,517,541,517L709,517C744.346,517,773,488.346,773,453L773,337L127,337Z" fill-rule="evenodd" fill="url(#master_svg0_989_36828)" fill-opacity="1"/></g></g><g><path d="M446.53,628L418.914,631.44444L418.914,698.9556Q418.914,709.458,422.989,719.0708Q426.92,728.345,434.08,735.489Q441.24,742.634,450.535,746.556Q460.169,750.622,470.694,750.622L470.694,723.0667Q465.769,723.0667,461.293,721.1776Q456.959,719.3485000000001,453.608,716.0047Q450.256,712.6609,448.423,708.3365Q446.53,703.8701,446.53,698.9556L446.53,674.8444L470.694,674.8444L470.694,647.2889L446.53,647.2889L446.53,628ZM229.1399,740.289L254.538,691.6788L258.775,750.237L286.31899999999996,748.252L278.49,640.0556L250.36599999999999,640.0556L217.6597,702.6534L184.9538,640.0556L156.82926,640.0556L149.0000026337,748.252L176.5446,750.237L180.7819,691.6788L206.1796,740.289L229.1399,740.289ZM330.404,747.934Q340.038,752,350.563,752Q363.196,752,374.754,747.122Q385.831,742.447,394.38300000000004,733.958L372.26599999999996,716.7933Q368.504,719.8408,363.996,721.7433Q357.596,724.4445000000001,350.563,724.4444Q345.63800000000003,724.4444,341.16200000000003,722.5553Q336.828,720.7262000000001,333.477,717.3824999999999Q330.125,714.0387000000001,328.29200000000003,709.7143Q328.058,709.1605,327.852,708.6L402.344,708.6L402.344,692.0667Q402.344,681.5037,398.212,672.0341Q394.223,662.8921,386.923,655.974Q379.751,649.1775,370.411,645.5011Q360.951,641.7778,350.563,641.7778Q340.175,641.7778,330.716,645.5011Q321.375,649.1776,314.204,655.974Q306.903,662.8921,302.91499999999996,672.0341Q298.783,681.5037,298.783,692.0667L298.783,700.3334Q298.783,710.8358000000001,302.858,720.4485999999999Q306.789,729.723,313.949,736.867Q321.10900000000004,744.011,330.404,747.934ZM577.7080000000001,647.2889L533.521,647.2889Q522.996,647.2889,513.3620000000001,651.3548Q504.067,655.2775,496.907,662.4217Q489.747,669.5659,485.816,678.8403Q481.741,688.4532,481.741,698.9556Q481.741,709.458,485.816,719.0708Q489.747,728.345,496.907,735.489Q504.067,742.634,513.3620000000001,746.556Q522.996,750.622,533.521,750.622L577.7080000000001,750.622L577.7080000000001,647.2889ZM655.033,647.2889L699.219,647.2889Q709.745,647.2889,719.379,651.3548Q728.674,655.2775,735.834,662.4217Q742.994,669.5659,746.925,678.8403Q751,688.4532,751,698.9556Q751,709.458,746.925,719.0708Q742.994,728.345,735.834,735.489Q728.674,742.634,719.379,746.556Q709.745,750.622,699.219,750.622L655.033,750.622L655.033,647.2889ZM600.491,647.9778L632.25,647.9778L632.25,749.933L600.491,749.933L600.491,647.9778ZM372.89099999999996,683.0337Q373.057,683.4142,373.209,683.8L327.918,683.8Q328.06899999999996,683.4142,328.235,683.0337Q329.986,679.0202,333.222,675.9541Q336.502,672.8457,340.85,671.1344Q345.426,669.3333,350.563,669.3333Q355.701,669.3333,360.277,671.1344Q364.625,672.8457,367.905,675.9541Q371.14,679.0202,372.89099999999996,683.0337ZM533.521,723.0667L550.091,723.0667L550.091,674.8444L533.521,674.8444Q528.596,674.8444,524.12,676.7336Q519.7860000000001,678.5626,516.435,681.9064Q513.0840000000001,685.2502,511.25,689.5746Q509.357,694.0409999999999,509.357,698.9556Q509.357,703.8701,511.25,708.3365Q513.0840000000001,712.6609,516.435,716.0047Q519.7860000000001,719.3485000000001,524.12,721.1776Q528.596,723.0667,533.521,723.0667ZM699.219,723.0667L682.65,723.0667L682.65,674.8444L699.219,674.8444Q704.145,674.8444,708.621,676.7336Q712.955,678.5626,716.306,681.9064Q719.657,685.2502,721.49,689.5746Q723.384,694.0409999999999,723.384,698.9556Q723.384,703.8701,721.49,708.3365Q719.657,712.6609,716.306,716.0047Q712.955,719.3485000000001,708.621,721.1776Q704.145,723.0667,699.219,723.0667Z" fill-rule="evenodd" fill="#FFFFFF" fill-opacity="1"/></g></g></g></g></svg>